<svg xmlns="http://www.w3.org/2000/svg" version="1.1"
    xmlns:xlink="http://www.w3.org/1999/xlink"
    xmlns:svgjs="http://svgjs.dev/svgjs" viewBox="0 0 1422 800" opacity="0.60">
    <style>
        @keyframes dash {
            to {
                stroke-dashoffset: -300;
            }
        }
        .moving-dash {
            animation: dash 5s linear infinite;
        }
    </style>
    <g stroke-width="1.5" stroke="#49acf2" fill="none" stroke-linecap="round">
        <path class="moving-dash" d="M 0 1015 Q 355.5 170 711 400 Q 1066.5 630 1422 1015" stroke-dasharray="51 60" opacity="0.7"></path>
        <path class="moving-dash" d="M 0 986 Q 355.5 170 711 400 Q 1066.5 630 1422 986" stroke-dasharray="48 9" opacity="0.7"></path>
        <path class="moving-dash" d="M 0 957 Q 355.5 170 711 400 Q 1066.5 630 1422 957" stroke-dasharray="30 47" opacity="0.85"></path>
        <path class="moving-dash" d="M 0 928 Q 355.5 170 711 400 Q 1066.5 630 1422 928" stroke-dasharray="9 25" opacity="0.85"></path>
        <path class="moving-dash" d="M 0 899 Q 355.5 170 711 400 Q 1066.5 630 1422 899" stroke-dasharray="57 33" opacity="0.89"></path>
        <path class="moving-dash" d="M 0 870 Q 355.5 170 711 400 Q 1066.5 630 1422 870" stroke-dasharray="28 15" opacity="0.86"></path>
        <path class="moving-dash" d="M 0 841 Q 355.5 170 711 400 Q 1066.5 630 1422 841" stroke-dasharray="18 38" opacity="0.83"></path>
        <path class="moving-dash" d="M 0 812 Q 355.5 170 711 400 Q 1066.5 630 1422 812" stroke-dasharray="30 59" opacity="0.80"></path>
        <path class="moving-dash" d="M 0 783 Q 355.5 170 711 400 Q 1066.5 630 1422 783" stroke-dasharray="35 43" opacity="0.78"></path>
        <path class="moving-dash" d="M 0 754 Q 355.5 170 711 400 Q 1066.5 630 1422 754" stroke-dasharray="35 22" opacity="0.75"></path>
        <path class="moving-dash" d="M 0 725 Q 355.5 170 711 400 Q 1066.5 630 1422 725" stroke-dasharray="54 8" opacity="0.72"></path>
        <path class="moving-dash" d="M 0 696 Q 355.5 170 711 400 Q 1066.5 630 1422 696" stroke-dasharray="5 21" opacity="0.69"></path>
        <path class="moving-dash" d="M 0 667 Q 355.5 170 711 400 Q 1066.5 630 1422 667" stroke-dasharray="19 7" opacity="0.66"></path>
        <path class="moving-dash" d="M 0 638 Q 355.5 170 711 400 Q 1066.5 630 1422 638" stroke-dasharray="38 1" opacity="0.64"></path>
        <path class="moving-dash" d="M 0 609 Q 355.5 170 711 400 Q 1066.5 630 1422 609" stroke-dasharray="47 38" opacity="0.61"></path>
        <path class="moving-dash" d="M 0 580 Q 355.5 170 711 400 Q 1066.5 630 1422 580" stroke-dasharray="44 21" opacity="0.3"></path>
        <path class="moving-dash" d="M 0 551 Q 355.5 170 711 400 Q 1066.5 630 1422 551" stroke-dasharray="6 23" opacity="0.55"></path>
        <path class="moving-dash" d="M 0 522 Q 355.5 170 711 400 Q 1066.5 630 1422 522" stroke-dasharray="47 46" opacity="0.53"></path>
        <path class="moving-dash" d="M 0 493 Q 355.5 170 711 400 Q 1066.5 630 1422 493" stroke-dasharray="52 20" opacity="0.50"></path>
        <path class="moving-dash" d="M 0 464 Q 355.5 170 711 400 Q 1066.5 630 1422 464" stroke-dasharray="9 24" opacity="0.47"></path>
        <path class="moving-dash" d="M 0 435 Q 355.5 170 711 400 Q 1066.5 630 1422 435" stroke-dasharray="22 28" opacity="0.44"></path>
        <path class="moving-dash" d="M 0 406 Q 355.5 170 711 400 Q 1066.5 630 1422 406" stroke-dasharray="57 48" opacity="0.41"></path>
        <path class="moving-dash" d="M 0 377 Q 355.5 170 711 400 Q 1066.5 630 1422 377" stroke-dasharray="1 10" opacity="0.39"></path>
        <path class="moving-dash" d="M 0 348 Q 355.5 170 711 400 Q 1066.5 630 1422 348" stroke-dasharray="57 55" opacity="0.36"></path>
        <path class="moving-dash" d="M 0 319 Q 355.5 170 711 400 Q 1066.5 630 1422 319" stroke-dasharray="3 6" opacity="0.33"></path>
        <path class="moving-dash" d="M 0 290 Q 355.5 170 711 400 Q 1066.5 630 1422 290" stroke-dasharray="25 25" opacity="0.30"></path>
        <path class="moving-dash" d="M 0 261 Q 355.5 170 711 400 Q 1066.5 630 1422 261" stroke-dasharray="38 6" opacity="0.27"></path>
        <path class="moving-dash" d="M 0 232 Q 355.5 170 711 400 Q 1066.5 630 1422 232" stroke-dasharray="28 4" opacity="0.25"></path>
        <path class="moving-dash" d="M 0 203 Q 355.5 170 711 400 Q 1066.5 630 1422 203" stroke-dasharray="10 11" opacity="0.22"></path>
        <path class="moving-dash" d="M 0 174 Q 355.5 170 711 400 Q 1066.5 630 1422 174" stroke-dasharray="38 49" opacity="0.19"></path>
        <path class="moving-dash" d="M 0 145 Q 355.5 170 711 400 Q 1066.5 630 1422 145" stroke-dasharray="5 14" opacity="0.16"></path>
        <path class="moving-dash" d="M 0 116 Q 355.5 170 711 400 Q 1066.5 630 1422 116" stroke-dasharray="24 1" opacity="0.13"></path>
        <path class="moving-dash" d="M 0 87 Q 355.5 170 711 400 Q 1066.5 630 1422 87" stroke-dasharray="32 58" opacity="0.11"></path>
        <path class="moving-dash" d="M 0 58 Q 355.5 170 711 400 Q 1066.5 630 1422 58" stroke-dasharray="8 34" opacity="0.08"></path>
    </g>
</svg>